<svg xmlns="http://www.w3.org/2000/svg" xmlns:xlink="http://www.w3.org/1999/xlink" aria-hidden="true" role="img" class="iconify iconify--logos" width="16" height="16" preserveAspectRatio="xMidYMid meet" viewBox="0 0 32 32">

<path fill="#f0f0f0" style="fill: var(--color2, #f0f0f0)" d="M4 0h24c2.209 0 4 1.791 4 4v24c0 2.209-1.791 4-4 4h-24c-2.209 0-4-1.791-4-4v-24c0-2.209 1.791-4 4-4z"></path>
<path fill="#00b068" style="fill: var(--color1, #00b068)" d="M3 9.5h2.579c1.665 0 2.789 0.075 3.373 0.225 0.589 0.15 1.037 0.396 1.343 0.739s0.497 0.725 0.573 1.148c0.076 0.418 0.115 1.242 0.115 2.473v4.553c0 1.167-0.057 1.948-0.172 2.345-0.109 0.391-0.303 0.699-0.581 0.923-0.278 0.219-0.622 0.375-1.031 0.466-0.409 0.086-1.026 0.128-1.85 0.128h-4.347v-13zM6.446 11.724v8.552c0.497 0 0.802-0.096 0.917-0.289 0.115-0.198 0.172-0.731 0.172-1.598v-5.051c0-0.589-0.019-0.966-0.057-1.132s-0.126-0.286-0.262-0.361c-0.136-0.080-0.393-0.12-0.77-0.12z"></path>
<path fill="#00b068" style="fill: var(--color1, #00b068)" d="M13.053 9.5h5.747v2.602h-2.3v2.465h2.153v2.473h-2.153v2.859h2.53v2.602h-5.976v-13z"></path>
<path fill="#00b068" style="fill: var(--color1, #00b068)" d="M29 9.5l-1.752 13h-5.231l-1.989-13h3.635c0.42 3.581 0.72 6.608 0.901 9.082 0.18-2.5 0.368-4.721 0.565-6.665l0.237-2.417h3.635z">
</path>
</svg>